<?xml version="1.0" standalone="no"?><!DOCTYPE svg PUBLIC "-//W3C//DTD SVG 1.1//EN" "http://www.w3.org/Graphics/SVG/1.1/DTD/svg11.dtd"><svg t="1709382936813" class="icon" viewBox="0 0 1024 1024" version="1.1" xmlns="http://www.w3.org/2000/svg" p-id="1774" xmlns:xlink="http://www.w3.org/1999/xlink" width="200" height="200"><path d="M347.639322 329.901559h1.006644c13.659119 0 24.732203-11.055729 24.732203-24.714847v-98.928814c0-13.659119-11.073085-24.732203-24.732203-24.732203H347.639322c-13.659119 0-24.732203 11.073085-24.732203 24.732203v98.928814c0 13.641763 11.073085 24.714847 24.732203 24.714847z m1.006644 212.679594H347.639322c-13.659119 0-24.732203 11.073085-24.732203 24.732203v148.39322c0 13.659119 11.073085 24.732203 24.732203 24.732204h0.989288c13.659119 0 24.732203-11.073085 24.732204-24.732204v-148.39322c0-13.659119-11.073085-24.732203-24.732204-24.732203zM753.872271 17.355932H269.173153A79.143051 79.143051 0 0 0 190.047458 96.498983v797.279458a79.143051 79.143051 0 0 0 79.14305 79.143051h19.612204v8.868881c0 13.659119 11.073085 24.732203 24.732203 24.732203h0.989288c13.659119 0 24.732203-11.073085 24.732204-24.732203v-8.886237H676.534237v8.886237c0 13.659119 11.073085 24.732203 24.732204 24.732203h0.989288c13.659119 0 24.732203-11.073085 24.732203-24.732203v-8.886237h26.866983a79.143051 79.143051 0 0 0 79.143051-79.143051V96.498983A79.143051 79.143051 0 0 0 753.854915 17.355932z m-473.816949 50.453695H743.007458a39.571525 39.571525 0 0 1 39.571525 39.571526v295.328542a25.13139 25.13139 0 0 0-28.290169 5.58861h-0.017356a48.318915 48.318915 0 0 1-34.295322 14.179797c-13.364068 0-25.495864-5.432407-34.260611-14.214509a98.599051 98.599051 0 0 0-69.944406-28.984407 98.616407 98.616407 0 0 0-69.944407 28.932339 48.318915 48.318915 0 0 1-34.277966 14.179797c-13.381424 0-25.51322-5.432407-34.26061-14.197153a98.581695 98.581695 0 0 0-69.944407-29.001762 98.599051 98.599051 0 0 0-69.944407 28.932339 48.318915 48.318915 0 0 1-34.277966 14.197152c-13.39878 0-25.51322-5.432407-34.277966-14.231864v0.034712a25.148746 25.148746 0 0 0-28.324882-5.623322V107.381153a39.571525 39.571525 0 0 1 39.571526-39.571526zM743.007458 922.450441H280.055322a39.571525 39.571525 0 0 1-39.571525-39.571526V450.421153a98.494915 98.494915 0 0 0 62.585491 22.337084 98.633763 98.633763 0 0 0 69.961763-28.932339 48.336271 48.336271 0 0 1 34.277966-14.197152c13.381424 0 25.51322 5.432407 34.277966 14.214508a98.581695 98.581695 0 0 0 69.927051 28.984407 98.599051 98.599051 0 0 0 69.944407-28.932339 48.336271 48.336271 0 0 1 34.295322-14.179797c13.364068 0 25.495864 5.432407 34.26061 14.197153a98.581695 98.581695 0 0 0 69.944407 29.001763 98.494915 98.494915 0 0 0 62.602847-22.302373v432.266847a39.571525 39.571525 0 0 1-39.571525 39.571526z" fill="#111111" p-id="1775"></path></svg>