<?xml version="1.0" standalone="no"?><!DOCTYPE svg PUBLIC "-//W3C//DTD SVG 1.1//EN" "http://www.w3.org/Graphics/SVG/1.1/DTD/svg11.dtd"><svg t="1709383001176" class="icon" viewBox="0 0 1024 1024" version="1.1" xmlns="http://www.w3.org/2000/svg" p-id="2355" xmlns:xlink="http://www.w3.org/1999/xlink" width="200" height="200"><path d="M958.542769 540.711385c-3.702154-50.333538-13.174154-100.391385-27.451077-144.836923-21.897846-68.135385-54.567385-133.159385-92.002461-183.236924-10.24-13.666462-30.011077-16.777846-44.248616-6.971076a29.577846 29.577846 0 0 0-7.286153 42.397538c33.555692 44.839385 62.976 103.699692 82.963692 165.730462 12.839385 40.034462 21.425231 85.366154 24.753231 131.170461 12.209231 166.892308-59.372308 303.222154-197.769847 380.553846-22.665846-178.825846-167.227077-237.174154-173.883076-239.812923a32.886154 32.886154 0 0 0-27.332924 1.634462c-125.853538 67.032615-162.500923 179.515077-173.134769 242.451692-124.534154-62.838154-200.251077-181.169231-200.251077-317.558154 0-91.864615 47.694769-176.994462 145.782154-260.155077 13.036308-11.067077 26.328615-21.956923 39.620923-32.846769 72.034462-58.958769 146.589538-119.926154 184.123077-212.676923 4.115692-10.003692 7.68-19.081846 10.673231-27.273846 66.363077 44.780308 209.979077 165.671385 256.590769 396.937846 3.328 16.502154 20.027077 27.254154 37.12 24.064 17.211077-3.150769 28.455385-19.101538 25.107692-35.584C757.523692 145.073231 526.001231 18.865231 499.672615 5.415385c-0.886154-0.492308-1.811692-0.905846-2.756923-1.378462-15.694769-7.148308-34.461538-0.886154-42.141538 14.040615-2.166154 4.233846-3.190154 8.743385-3.268923 13.193847-2.953846 11.224615-15.320615 45.942154-18.116923 53.228307-31.822769 78.513231-97.142154 131.938462-166.262154 188.49477-13.587692 11.106462-27.116308 22.232615-40.467692 33.516307-110.907077 94.089846-167.128615 196.923077-167.128616 305.723077 0 175.537231 107.027692 325.513846 279.315692 391.286154a32.649846 32.649846 0 0 0 29.617231-3.190154c8.723692-5.671385 13.922462-15.222154 13.824-25.324308-0.039385-6.183385 0.472615-147.574154 130.599385-226.500923 34.363077 18.944 124.219077 82.077538 124.219077 225.378462 0 10.358154 5.454769 20.027077 14.493538 25.6 9.058462 5.572923 20.460308 6.419692 30.267077 2.107077 188.337231-81.900308 291.780923-254.227692 276.676923-460.878769M464.580923 56.083692" fill="#000000" p-id="2356"></path></svg>