<?xml version="1.0" standalone="no"?><!DOCTYPE svg PUBLIC "-//W3C//DTD SVG 1.1//EN" "http://www.w3.org/Graphics/SVG/1.1/DTD/svg11.dtd"><svg t="1709383005202" class="icon" viewBox="0 0 1024 1024" version="1.1" xmlns="http://www.w3.org/2000/svg" p-id="2501" xmlns:xlink="http://www.w3.org/1999/xlink" width="200" height="200"><path d="M248.27904 681.45152h558.91968a149.05344 149.05344 0 0 1 149.05344 149.05344v24.84224a149.03296 149.03296 0 0 1-149.03296 149.05344H211.00544a149.05344 149.05344 0 0 1-149.05344-149.05344v-62.11584a111.73888 111.73888 0 0 1 55.86944-96.80896c11.30496-6.53312 18.6368-18.18624 18.6368-31.21152v-45.8752a37.2736 37.2736 0 1 1 74.52672 0v24.86272a37.2736 37.2736 0 0 0 37.2736 37.25312z m-37.2736 74.5472a74.52672 74.52672 0 0 0-74.5472 74.50624v24.84224a74.50624 74.50624 0 0 0 74.5472 74.52672h596.19328c41.1648 0 74.52672-33.3824 74.52672-74.5472v-24.82176a74.50624 74.50624 0 0 0-74.52672-74.52672H211.00544z m558.91968 49.664a37.2736 37.2736 0 1 1 0 74.52672 37.2736 37.2736 0 0 1 0-74.52672zM97.93536 235.52a37.2736 37.2736 0 0 1-1.4336-53.98528C202.09664 76.02176 347.97568 10.752 509.07136 10.752c161.11616 0 306.9952 65.24928 412.63104 170.8032a37.2736 37.2736 0 1 1-52.8384 52.57216 507.63776 507.63776 0 0 0-359.79264-148.86912 507.61728 507.61728 0 0 0-359.77216 148.86912 37.2736 37.2736 0 0 1-51.4048 1.4336zM264.192 385.7408a37.39648 37.39648 0 0 1-0.14336-55.23456 358.93248 358.93248 0 0 1 245.0432-96.19456c94.63808 0 180.75648 36.51584 245.0432 96.19456 16.13824 14.99136 16.1792 40.46848-0.14336 55.23456a37.13024 37.13024 0 0 1-50.19648-0.28672 284.672 284.672 0 0 0-194.70336-76.61568 284.672 284.672 0 0 0-194.68288 76.61568 37.1712 37.1712 0 0 1-50.21696 0.28672z m167.936 151.69536c-18.06336-16.32256-16.1792-45.79328 4.42368-58.73664a135.9872 135.9872 0 0 1 72.51968-20.80768 135.9872 135.9872 0 0 1 72.54016 20.80768c20.60288 12.94336 22.48704 42.41408 4.4032 58.73664l-0.06144 0.04096a36.94592 36.94592 0 0 1-44.15488 4.23936 61.78816 61.78816 0 0 0-32.72704-9.3184c-12.00128 0-23.22432 3.39968-32.72704 9.3184-13.9264 8.66304-31.96928 6.7584-44.15488-4.23936l-0.04096-0.04096z" fill="#111111" p-id="2502"></path></svg>