<?xml version="1.0" standalone="no"?><!DOCTYPE svg PUBLIC "-//W3C//DTD SVG 1.1//EN" "http://www.w3.org/Graphics/SVG/1.1/DTD/svg11.dtd"><svg t="1709382960290" class="icon" viewBox="0 0 1024 1024" version="1.1" xmlns="http://www.w3.org/2000/svg" p-id="1920" xmlns:xlink="http://www.w3.org/1999/xlink" width="200" height="200"><path d="M953.63072 502.33344v-31.88736a84.21376 84.21376 0 0 0-84.11136-84.11136h-87.6544a84.21376 84.21376 0 0 0-84.13184 84.11136v15.09376h-57.97888v-15.09376a84.21376 84.21376 0 0 0-84.11136-84.11136h-87.6544a84.21376 84.21376 0 0 0-84.13184 84.11136v15.09376h-58.0608v-15.09376a84.21376 84.21376 0 0 0-84.11136-84.11136h-87.6544a84.21376 84.21376 0 0 0-84.11136 84.11136v31.39584A90.3168 90.3168 0 0 0 31.10912 575.8976v59.10528c0 30.63808 15.38048 57.7536 38.8096 74.05568v220.5696a84.1728 84.1728 0 0 0 84.11136 84.04992h87.6544a84.1728 84.1728 0 0 0 84.11136-84.04992v-204.26752h58.0608v204.26752a84.1728 84.1728 0 0 0 84.11136 84.04992h87.6544a84.1728 84.1728 0 0 0 84.13184-84.04992v-204.26752h57.97888v204.26752a84.1728 84.1728 0 0 0 84.11136 84.04992h87.67488a84.1728 84.1728 0 0 0 84.11136-84.04992V708.68992a90.33728 90.33728 0 0 0 38.2976-73.68704V575.8976a89.94816 89.94816 0 0 0-38.2976-73.56416z m-690.5856 427.29472c0 11.53024-9.76896 21.27872-21.36064 21.27872h-87.6544a21.58592 21.58592 0 0 1-21.34016-21.27872v-459.1616c0-11.59168 9.74848-21.34016 21.34016-21.34016h87.6544c11.59168 0 21.34016 9.74848 21.34016 21.31968v459.18208z m62.75072-267.0592v-114.25792h58.0608v114.2784h-58.0608z m251.16672 267.0592c0 11.53024-9.74848 21.27872-21.31968 21.27872h-87.6544a21.58592 21.58592 0 0 1-21.36064-21.27872v-459.1616c0-11.59168 9.74848-21.34016 21.34016-21.34016h87.6544c11.59168 0 21.34016 9.74848 21.34016 21.31968v459.18208z m62.79168-267.0592v-114.25792h57.97888v114.2784h-57.97888z m251.0848 267.0592c0 11.53024-9.728 21.27872-21.2992 21.27872h-87.69536a21.58592 21.58592 0 0 1-21.31968-21.27872v-459.1616c0-11.59168 9.74848-21.34016 21.31968-21.34016h87.67488c11.59168 0 21.34016 9.74848 21.34016 21.31968v459.18208z m-88.20736-573.1328a31.39584 31.39584 0 0 0 23.49056-52.30592c-19.92704-22.3232-28.75392-42.8032-26.35776-60.74368 3.29728-24.84224 27.4432-40.77568 32.29696-44.58496 39.30112-36.78208 55.9104-73.56416 49.41824-109.3632-9.25696-50.688-60.94848-73.44128-66.82624-75.89888a31.27296 31.27296 0 0 0-40.83712 16.7936 31.49824 31.49824 0 0 0 16.60928 41.08288c6.7584 2.94912 26.74688 14.6432 29.30688 29.42976 2.27328 13.04576-8.58112 31.55968-25.74336 48.49664-4.95616 3.11296-48.7424 31.80544-56.32 84.72576-5.34528 37.21216 8.62208 74.8544 41.49248 111.88224a31.5392 31.5392 0 0 0 23.47008 10.48576z m-289.05472 0a31.39584 31.39584 0 0 0 23.49056-52.30592c-19.92704-22.3232-28.75392-42.8032-26.37824-60.74368 3.31776-24.84224 27.48416-40.77568 32.31744-44.58496 39.30112-36.78208 55.9104-73.56416 49.41824-109.3632C583.168 38.8096 531.456 16.05632 525.59872 13.59872a31.3344 31.3344 0 0 0-40.83712 16.7936 31.49824 31.49824 0 0 0 16.60928 41.08288c6.7584 2.94912 26.74688 14.6432 29.30688 29.42976 2.27328 13.04576-8.58112 31.55968-25.74336 48.49664-4.95616 3.11296-48.7424 31.80544-56.32 84.72576-5.34528 37.21216 8.62208 74.8544 41.49248 111.88224a31.5392 31.5392 0 0 0 23.47008 10.48576z m-298.92608 0a31.39584 31.39584 0 0 0 23.49056-52.30592c-19.92704-22.3232-28.75392-42.8032-26.35776-60.74368 3.29728-24.84224 27.4432-40.77568 32.29696-44.58496 39.30112-36.78208 55.9104-73.56416 49.41824-109.3632-9.25696-50.688-60.94848-73.44128-66.82624-75.89888a31.31392 31.31392 0 0 0-40.83712 16.7936 31.49824 31.49824 0 0 0 16.62976 41.08288c6.73792 2.94912 26.7264 14.6432 29.2864 29.42976 2.27328 13.04576-8.58112 31.55968-25.74336 48.49664-4.95616 3.11296-48.7424 31.80544-56.32 84.72576-5.34528 37.21216 8.62208 74.8544 41.49248 111.88224a31.5392 31.5392 0 0 0 23.47008 10.48576z" fill="#111111" p-id="1921"></path></svg>