<?xml version="1.0" standalone="no"?><!DOCTYPE svg PUBLIC "-//W3C//DTD SVG 1.1//EN" "http://www.w3.org/Graphics/SVG/1.1/DTD/svg11.dtd"><svg t="1709382985540" class="icon" viewBox="0 0 1448 1024" version="1.1" xmlns="http://www.w3.org/2000/svg" p-id="2211" xmlns:xlink="http://www.w3.org/1999/xlink" width="282.8125" height="200"><path d="M978.669268 986.661463a36.539317 36.539317 0 1 1-73.078634 0v-219.260878H576.686829v219.285854a36.539317 36.539317 0 1 1-73.078634 0v-219.285854H94.682537A73.078634 73.078634 0 0 1 21.978537 701.589854l-11.688586-116.885854A1923.746341 1923.746341 0 0 1 8.641561 219.111024l13.886439-152.650926A73.078634 73.078634 0 0 1 95.281951 0H1350.43122a73.078634 73.078634 0 0 1 72.778926 66.460098l13.886439 152.650926c11.03922 121.63122 10.489756 244.061659-1.64839 365.592976l-11.688585 116.885854a73.078634 73.078634 0 0 1-72.728976 65.810731h-372.386341v219.285854z m338.419512-913.582829H128.649366c-18.906537 0-34.691122 14.435902-36.389464 33.267512l-10.86439 119.383415a1850.667707 1850.667707 0 0 0-1.348683 319.762732l2.922147 31.918829 8.41678 84.017951A36.539317 36.539317 0 0 0 127.77522 694.321951h302.754341v-146.182244a73.078634 73.078634 0 0 1 73.078634-73.078634h475.061073a73.078634 73.078634 0 0 1 73.10361 73.078634V694.321951H1317.962927c18.756683 0 34.466341-14.236098 36.364488-32.892878l8.391805-84.017951a1850.442927 1850.442927 0 0 0 4.195902-319.737756l-2.622439-31.968781-10.86439-119.383414a36.539317 36.539317 0 0 0-36.389464-33.217561zM942.104976 548.139707H540.147512c-20.180293 0-36.539317 16.359024-36.539317 36.564293V694.321951h475.061073v-109.642927c0-20.180293-16.359024-36.539317-36.539317-36.539317zM229.525854 182.721561a54.821463 54.821463 0 1 1 0 109.642927 54.821463 54.821463 0 0 1 0-109.642927z m182.721561 0a54.821463 54.821463 0 1 1 0 109.642927 54.821463 54.821463 0 0 1 0-109.642927z" fill="#111111" p-id="2212"></path></svg>