<?xml version="1.0" standalone="no"?><!DOCTYPE svg PUBLIC "-//W3C//DTD SVG 1.1//EN" "http://www.w3.org/Graphics/SVG/1.1/DTD/svg11.dtd"><svg t="1709383026430" class="icon" viewBox="0 0 1260 1024" version="1.1" xmlns="http://www.w3.org/2000/svg" p-id="2791" xmlns:xlink="http://www.w3.org/1999/xlink" width="246.09375" height="200"><path d="M1160.769641 0C1208.267487 0 1244.553846 36.286359 1244.553846 83.784205v726.094769a82.28759 82.28759 0 0 1-83.784205 83.784205h-111.694769l50.254769 67.032616c8.402051 11.185231 5.566359 30.72-5.592615 39.122051-5.566359 2.783179-54.823385 5.566359-60.389744 5.566359a25.389949 25.389949 0 0 1-22.370461-11.185231l-75.355898-100.535795H319.277949L243.922051 994.198974a25.389949 25.389949 0 0 1-22.370461 11.185231c-5.566359 0-49.362051-2.835692-54.954667-5.566359-11.158974-8.402051-13.994667-27.936821-5.592615-39.122051l50.254769-67.032616H99.511795A82.28759 82.28759 0 0 1 15.753846 809.878974V83.757949C15.753846 36.286359 52.040205 0 99.538051 0H1160.795897zM91.897436 107.651282v682.666667a26.25641 26.25641 0 0 0 26.25641 26.25641h1024a26.25641 26.25641 0 0 0 26.25641-26.25641v-682.666667a26.25641 26.25641 0 0 0-26.25641-26.25641h-1024a26.25641 26.25641 0 0 0-26.25641 26.25641z" fill="#111111" p-id="2792"></path><path d="M1168.935385 693.169231H91.372308c-17.014154 0-28.356923-15.753846-28.356923-39.384616v-39.384615h1134.276923v39.384615c0 23.630769-11.342769 39.384615-28.356923 39.384616z" fill="#1B1B28" p-id="2793"></path><path d="M772.726154 499.606974c10.975179 15.228718 27.332923 30.378667 49.178256 30.378667 21.87159 0 38.281846-10.108718 49.152-30.378667l109.252923-202.515692c10.922667-25.337436 0-55.716103-21.819077-65.851077-27.306667-10.108718-60.074667 0-70.997333 20.217436l-65.562256 116.525949-60.12718-111.405949c-10.843897-25.337436-43.638154-35.446154-70.971077-20.269949-27.306667 10.108718-38.281846 40.513641-21.871589 65.824821l103.791589 197.448205z m-387.754667-172.137025v151.893333c0 30.404923 21.819077 50.622359 54.587077 50.622359 32.794256 0 54.613333-20.217436 54.613333-50.622359v-151.893333h54.63959c32.768 0 54.63959-20.269949 54.63959-50.674872 0-30.378667-21.87159-50.596103-54.613333-50.596103H330.305641c-32.820513 0-54.63959 20.217436-54.63959 50.622359 0 30.378667 21.845333 50.674872 54.613334 50.674872h54.665846z" fill="#111111" p-id="2794"></path></svg>