<?xml version="1.0" standalone="no"?><!DOCTYPE svg PUBLIC "-//W3C//DTD SVG 1.1//EN" "http://www.w3.org/Graphics/SVG/1.1/DTD/svg11.dtd"><svg t="1709383020966" class="icon" viewBox="0 0 1024 1024" version="1.1" xmlns="http://www.w3.org/2000/svg" p-id="2645" xmlns:xlink="http://www.w3.org/1999/xlink" width="200" height="200"><path d="M855.823059 20.078431H166.249412a75.816157 75.816157 0 0 0-75.796079 75.816157v838.676079a75.816157 75.816157 0 0 0 75.796079 75.796078h689.593725a75.816157 75.816157 0 0 0 75.816157-75.796078V95.894588A75.816157 75.816157 0 0 0 855.823059 20.078431zM540.471216 771.814902H140.970667v-137.456941h399.500549v137.477019zM166.229333 70.635922h374.241883v513.204705H140.970667V95.894588c0-13.974588 11.304157-25.278745 25.258666-25.278745zM140.970667 934.570667v-112.198275h399.500549v137.456941H166.229333a25.278745 25.278745 0 0 1-25.258666-25.258666z m740.131137 0c0 13.95451-11.324235 25.258667-25.278745 25.258666H591.008627V70.615843h264.83451c13.934431 0 25.258667 11.304157 25.258667 25.278745v838.676079z" fill="#111111" p-id="2646"></path></svg>