<?xml version="1.0" standalone="no"?><!DOCTYPE svg PUBLIC "-//W3C//DTD SVG 1.1//EN" "http://www.w3.org/Graphics/SVG/1.1/DTD/svg11.dtd"><svg t="1708097692883" class="icon" viewBox="0 0 1312 1024" version="1.1" xmlns="http://www.w3.org/2000/svg" p-id="4192" xmlns:xlink="http://www.w3.org/1999/xlink" width="256.25" height="200"><path d="M295.648 1021.664c0.288 0.192 0.672 0.096 0.96 0.288A16.32 16.32 0 0 0 304 1024a16 16 0 0 0 4.224-0.576L656 928.512l347.776 94.912A16 16 0 0 0 1008 1024a15.744 15.744 0 0 0 7.36-2.08c0.32-0.16 0.672-0.096 0.96-0.288l288-176a16.032 16.032 0 0 0 7.04-18.016l-159.488-560a15.968 15.968 0 0 0-23.232-9.6l-158.784 89.088a16.032 16.032 0 0 0 15.712 27.904l141.088-79.2 150.624 528.832-256.48 156.768-60.928-487.392a16 16 0 0 0-31.776 3.968l61.024 488.288L672 899.712v-87.36a16 16 0 0 0-32 0v87.36l-317.152 86.56 61.024-488.288a16 16 0 1 0-31.776-3.968L291.2 981.408l-256.48-156.736L185.344 295.872l141.088 79.2a16.032 16.032 0 0 0 15.712-27.904L183.328 258.048a15.872 15.872 0 0 0-23.2 9.6L0.64 827.648a15.936 15.936 0 0 0 7.04 18.016l287.968 176z" fill="#1296db" p-id="4193"></path><path d="M645.152 747.776a16 16 0 0 0 21.6 0.096C677.408 738.176 928 508.224 928 272 928 119.456 808.544 0 656 0S384 119.456 384 272c0 232.128 250.496 465.92 261.152 475.776zM656 32C792.8 32 896 135.168 896 272c0 195.104-191.776 394.784-239.904 441.824C608.064 666.24 416 463.936 416 272 416 135.168 519.2 32 656 32z" fill="#1296db" p-id="4194"></path><path d="M800 272C800 192.608 735.392 128 656 128S512 192.608 512 272s64.608 144 144 144S800 351.392 800 272zM656 384c-61.76 0-112-50.24-112-112S594.24 160 656 160 768 210.24 768 272 717.76 384 656 384z" fill="#1296db" p-id="4195"></path></svg>