<?xml version="1.0" standalone="no"?><!DOCTYPE svg PUBLIC "-//W3C//DTD SVG 1.1//EN" "http://www.w3.org/Graphics/SVG/1.1/DTD/svg11.dtd"><svg t="1707324441779" class="icon" viewBox="0 0 1166 1024" version="1.1" xmlns="http://www.w3.org/2000/svg" p-id="2627" xmlns:xlink="http://www.w3.org/1999/xlink" width="227.734375" height="200"><path d="M883.58016 979.179663a39.418513 39.418513 0 1 1-78.093281 0 143.542887 143.542887 0 0 0-44.624731-107.099356 234.279842 234.279842 0 0 0-133.13045-60.243388 118.255539 118.255539 0 0 1-74.374553-33.468549 103.380628 103.380628 0 0 1-30.493566-74.374552v-16.362402a38.674767 38.674767 0 0 1 20.824874-34.212294 172.548963 172.548963 0 0 0 52.062187-81.068263 166.598998 166.598998 0 0 1 37.187277-63.962115 130.899213 130.899213 0 0 0 29.749821-43.880987 37.931022 37.931022 0 0 0-0.743746-40.906004 52.805933 52.805933 0 0 1-7.437455-44.624731 394.928876 394.928876 0 0 0 15.618656-69.91208 213.454967 213.454967 0 0 0 0-59.499642 223.123659 223.123659 0 0 0-47.599714-93.711937c-13.38742-14.874911-28.26233-29.749821-42.393495-24.543602a74.374553 74.374553 0 0 1-37.187276-5.206219 74.374553 74.374553 0 0 1-29.749821-26.031094 61.730879 61.730879 0 0 0-38.674768-17.106147 397.160112 397.160112 0 0 0-68.424588 0 214.942458 214.942458 0 0 0-118.25554 31.981058 162.880271 162.880271 0 0 0-61.730878 85.530736 287.085774 287.085774 0 0 0-17.849893 95.199427 212.711221 212.711221 0 0 0 16.362402 84.786991 55.780915 55.780915 0 0 1 0 15.618656 42.393495 42.393495 0 0 1-5.206219 27.518584 40.906004 40.906004 0 0 0 0 38.674768 135.361686 135.361686 0 0 0 30.493566 46.112223 169.573981 169.573981 0 0 1 32.724804 63.962115 165.111507 165.111507 0 0 0 55.037169 83.299499 38.674767 38.674767 0 0 1 19.337384 35.699786v14.87491a101.893137 101.893137 0 0 1-30.493567 74.374553 118.255539 118.255539 0 0 1-74.374553 33.468549 231.304859 231.304859 0 0 0-128.667976 55.780914 141.31165 141.31165 0 0 0-45.368478 107.099357 39.418513 39.418513 0 0 1-39.418513 41.649749 38.674767 38.674767 0 0 1-38.674767-39.418513 223.123659 223.123659 0 0 1 69.168334-163.624016 324.27305 324.27305 0 0 1 180.730163-81.812008 37.931022 37.931022 0 0 0 23.799857-12.643674 22.312366 22.312366 0 0 0 8.924947-9.668692 246.17977 246.17977 0 0 1-67.680843-107.099356 207.505002 207.505002 0 0 0-17.849893-31.981058A148.749106 148.749106 0 0 1 148.759578 396.826914a301.216939 301.216939 0 0 1-14.874911-99.661901 371.872764 371.872764 0 0 1 19.337384-124.205503A235.023587 235.023587 0 0 1 245.446496 45.779025 290.060756 290.060756 0 0 1 404.608039 0.410548a437.322371 437.322371 0 0 1 84.043245 4.462473 133.874195 133.874195 0 0 1 87.761973 46.855968 124.949249 124.949249 0 0 1 105.611865 52.805933 279.648319 279.648319 0 0 1 34.956039 52.062187 223.123659 223.123659 0 0 1 81.812009 0 188.167619 188.167619 0 0 1 98.174409 49.087204 113.04932 113.04932 0 0 1 88.505718 46.112223 272.210863 272.210863 0 0 1 55.037169 113.049321 223.123659 223.123659 0 0 1-7.437455 86.274481 237.254824 237.254824 0 0 0-5.949964 34.212294 101.149392 101.149392 0 0 1 5.949964 92.224446 190.398855 190.398855 0 0 1-43.880986 65.449606 100.405646 100.405646 0 0 0-13.38742 27.518585 223.123659 223.123659 0 0 1-51.318441 85.530736 17.106147 17.106147 0 0 0 0 7.437455 23.799857 23.799857 0 0 0 14.131165 5.206219 270.723372 270.723372 0 0 1 162.136525 71.39957 188.167619 188.167619 0 0 1 59.499643 139.080414 39.418513 39.418513 0 0 1-78.093281 0 113.04932 113.04932 0 0 0-35.699785-84.043245 196.34882 196.34882 0 0 0-105.611865-47.599713 95.199428 95.199428 0 0 1-67.680844-34.212295 117.511794 117.511794 0 0 1-23.056111-74.374553 38.674767 38.674767 0 0 1 20.081129-34.212294 140.567905 140.567905 0 0 0 40.162259-63.21837 137.592923 137.592923 0 0 1 31.981058-55.780914 101.893137 101.893137 0 0 0 23.056111-34.212295 25.287348 25.287348 0 0 0 0-25.287348 39.418513 39.418513 0 0 1-13.387419-23.799857 223.123659 223.123659 0 0 1 8.1812-66.193352 156.930307 156.930307 0 0 0 5.949965-56.52466 176.26769 176.26769 0 0 0-37.187277-74.374553c-9.668692-11.156183-19.337384-19.337384-26.774839-18.593638a63.962115 63.962115 0 0 1-35.699785-5.206219 61.730879 61.730879 0 0 1-24.543603-21.56862 113.04932 113.04932 0 0 0-53.549678-22.312366 172.548963 172.548963 0 0 0-37.931022 0v5.206219a304.935667 304.935667 0 0 1 0 81.068262 425.422442 425.422442 0 0 1-14.131165 69.168335 148.749106 148.749106 0 0 1-43.880986 177.755181 171.805217 171.805217 0 0 0-16.362402 35.699785 246.17977 246.17977 0 0 1-65.449606 104.86812 21.56862 21.56862 0 0 0 6.69371 14.131165 42.393495 42.393495 0 0 0 23.799857 9.668692 322.785559 322.785559 0 0 1 180.730163 81.812008 223.123659 223.123659 0 0 1 69.91208 163.624016z" fill="#1296db" p-id="2628"></path></svg>