<?xml version="1.0" standalone="no"?><!DOCTYPE svg PUBLIC "-//W3C//DTD SVG 1.1//EN" "http://www.w3.org/Graphics/SVG/1.1/DTD/svg11.dtd"><svg t="1709462327649" class="icon" viewBox="0 0 1024 1024" version="1.1" xmlns="http://www.w3.org/2000/svg" p-id="9099" xmlns:xlink="http://www.w3.org/1999/xlink" width="200" height="200"><path d="M884.136241 332.509831c0-68.498952-55.529397-124.028349-124.028349-124.028349H263.800982c-68.498952 0-124.028349 55.529397-124.028349 124.028349v358.082391c0 68.498952 55.529397 124.028349 124.028349 124.028348h496.30691c68.498952 0 124.028349-55.529397 124.028349-124.028348V332.509831z m-34.812101 358.218567c0 49.762875-40.341082 90.103956-90.103957 90.103957H263.663782c-49.762875 0-90.103956-40.341082-90.103957-90.103957V332.37263c0-49.762875 40.341082-90.103956 90.103957-90.103956h495.556401c49.762875 0 90.103956 40.341082 90.103957 90.103956v358.355768zM236.810341 615.071464c9.369575 0 16.962708-7.593134 16.962708-16.962708 0-50.104852 40.76497-90.869823 90.872895-90.869823s90.872894 40.76497 90.872894 90.869823c0 9.369575 7.593134 16.962708 16.962708 16.962708s16.962708-7.593134 16.962708-16.962708c0-55.070696-35.872846-101.891948-85.465756-118.408242 28.765034-14.460332 48.561857-44.236965 48.561857-78.565793 0-48.466636-39.4288-87.895436-87.893387-87.895436-48.466636 0-87.895436 39.4288-87.895436 87.895436 0 34.328827 19.795799 64.10546 48.561857 78.565793-49.59291 16.518342-85.463708 63.337546-85.463708 118.408242-0.002048 9.369575 7.591086 16.962708 16.96066 16.962708z m107.834579-267.906762c29.759227 0 53.967972 24.210792 53.967971 53.971043 0 29.759227-24.208745 53.967972-53.967971 53.967971-29.759227 0-53.971043-24.208745-53.971043-53.967971 0.001024-29.759227 24.211816-53.971043 53.971043-53.971043z m157.799158 23.089638c0-9.369575 7.593134-17.406051 16.962708-17.406051h147.007408c9.369575 0 16.962708 8.036476 16.962708 17.406051s-7.593134 17.406051-16.962708 17.40605H519.406786c-9.369575 0-16.962708-8.036476-16.962708-17.40605z m0 96.757163c0-9.369575 7.593134-16.894108 16.962708-16.894108h264.613948c9.369575 0 16.962708 7.524533 16.962708 16.894108s-7.593134 16.894108-16.962708 16.894108H519.406786c-9.369575 0-16.962708-7.524533-16.962708-16.894108z m0 100.340762c0-9.369575 7.593134-16.894108 16.962708-16.894108h264.613948c9.369575 0 16.962708 7.524533 16.962708 16.894108s-7.593134 16.894108-16.962708 16.894107H519.406786c-9.369575 0-16.962708-7.524533-16.962708-16.894107z m300.800103 97.269105c0 9.369575-7.593134 16.894108-16.962709 16.894108H232.176236c-9.369575 0-16.962708-7.524533-16.962708-16.894108s7.593134-16.894108 16.962708-16.894107h554.105236c9.369575 0 16.962708 7.525557 16.962709 16.894107z" fill="#272636" p-id="9100"></path></svg>