<?xml version="1.0" standalone="no"?><!DOCTYPE svg PUBLIC "-//W3C//DTD SVG 1.1//EN" "http://www.w3.org/Graphics/SVG/1.1/DTD/svg11.dtd"><svg t="1709462227536" class="icon" viewBox="0 0 1024 1024" version="1.1" xmlns="http://www.w3.org/2000/svg" p-id="5863" xmlns:xlink="http://www.w3.org/1999/xlink" width="200" height="200"><path d="M488.704 14.279111L10.382222 433.038222a28.444444 28.444444 0 0 0 18.716445 49.834667h141.198222V967.111111a56.888889 56.888889 0 0 0 56.888889 56.888889h600.519111a56.888889 56.888889 0 0 0 56.888889-56.888889V482.872889h110.165333a28.444444 28.444444 0 0 0 19.370667-49.265778L564.935111 15.445333a56.888889 56.888889 0 0 0-76.231111-1.166222zM827.733333 425.984V967.111111H227.185778V425.984H104.789333l421.376-368.924444 396.288 368.924444H827.733333z" fill="#4D4A49" p-id="5864"></path><path d="M392.903111 701.923556l-31.004444-28.359112a28.444444 28.444444 0 0 1 38.4-41.984l29.354666 26.851556 33.336889-39.424a142.222222 142.222222 0 1 1 46.933334 32.625778l-121.400889 143.587555a28.444444 28.444444 0 0 1-43.434667-36.721777l47.815111-56.604445z m172.999111-95.744a85.333333 85.333333 0 1 0 0-170.666667 85.333333 85.333333 0 0 0 0 170.666667z" fill="#515151" p-id="5865" data-spm-anchor-id="a313x.search_index.0.i3.662f3a81Z3ZDfH" class="selected"></path></svg>