<?xml version="1.0" standalone="no"?><!DOCTYPE svg PUBLIC "-//W3C//DTD SVG 1.1//EN" "http://www.w3.org/Graphics/SVG/1.1/DTD/svg11.dtd"><svg t="1709462298642" class="icon" viewBox="0 0 1024 1024" version="1.1" xmlns="http://www.w3.org/2000/svg" p-id="8022" xmlns:xlink="http://www.w3.org/1999/xlink" width="200" height="200"><path d="M1009.5616 790.8352L773.4272 570.368a31.744 31.744 0 0 0-42.7008-0.512L482.816 790.528a31.744 31.744 0 0 0 21.0944 55.7056h77.0048v144.9984a31.744 31.744 0 0 0 31.744 31.8464h269.312a31.744 31.744 0 0 0 31.744-31.8464V846.1312h74.1376a31.744 31.744 0 0 0 21.7088-55.296zM881.9712 782.336a31.744 31.744 0 0 0-31.8464 31.9488v144.9984H644.5056V814.08a31.9488 31.9488 0 0 0-31.744-31.9488h-25.088l163.5328-145.408 155.8528 145.408h-25.088zM664.576 583.168A450.1504 450.1504 0 0 0 561.8688 542.72 281.3952 281.3952 0 0 0 455.68 1.024a281.3952 281.3952 0 0 0-280.576 281.6c0 117.4528 72.0896 218.112 174.1824 260.1984A456.704 456.704 0 0 0 0.7168 986.3168a31.8464 31.8464 0 1 0 63.488 0c0-216.576 175.616-392.8064 391.3728-392.8064 56.32 0 109.8752 12.288 158.3104 33.9968l50.688-44.3392zM238.592 282.5216c0-120.0128 97.28-217.7024 217.088-217.7024a217.7024 217.7024 0 1 1 0 435.5072 217.6 217.6 0 0 1-217.088-217.8048z" fill="#515151" p-id="8023" data-spm-anchor-id="a313x.search_index.0.i7.662f3a81Z3ZDfH" class="selected"></path></svg>