<?xml version="1.0" standalone="no"?><!DOCTYPE svg PUBLIC "-//W3C//DTD SVG 1.1//EN" "http://www.w3.org/Graphics/SVG/1.1/DTD/svg11.dtd"><svg t="1709462165133" class="icon" viewBox="0 0 1024 1024" version="1.1" xmlns="http://www.w3.org/2000/svg" p-id="4224" xmlns:xlink="http://www.w3.org/1999/xlink" width="200" height="200"><path d="M340.010667 317.952l85.973333-173.632a96 96 0 0 1 172.053333 0l85.952 173.632 191.68 28.096a96 96 0 0 1 53.184 163.626667l-138.56 135.402666 32.512 190.997334a96 96 0 0 1-139.221333 101.12L512 847.296l-171.584 89.941333A96 96 0 0 1 201.173333 836.053333l32.512-190.997333-138.56-135.381333a96 96 0 0 1 53.184-163.648l191.68-28.096z m186.197333-159.722667a32 32 0 0 0-42.88 14.506667L394.88 351.36a53.333333 53.333333 0 0 1-40.064 29.098667l-197.205333 28.906666a32 32 0 0 0-17.728 54.549334l142.570666 139.306666a53.333333 53.333333 0 0 1 15.296 47.104l-33.450666 196.48a32 32 0 0 0 46.4 33.706667l176.533333-92.522667a53.333333 53.333333 0 0 1 49.536 0l176.533333 92.544a32 32 0 0 0 46.4-33.706666l-33.450666-196.501334a53.333333 53.333333 0 0 1 15.296-47.104l142.570666-139.306666a32 32 0 0 0-17.706666-54.549334l-197.226667-28.906666a53.333333 53.333333 0 0 1-40.064-29.098667l-88.448-178.645333a32 32 0 0 0-14.464-14.485334z" fill="#212121" p-id="4225"></path></svg>